<svg id="Layer_1" data-name="Layer 1" xmlns="http://www.w3.org/2000/svg" viewBox="0 0 292 502"><defs><style>.cls-1{fill:#c1272d;}.cls-2{fill:#fff;}.cls-3{fill:#ff7115;}.cls-4{fill:#ff7bac;}.cls-5{fill:#2accff;}.cls-6{fill:#ff8515;}.cls-7,.cls-8,.cls-9{fill:none;stroke:#000;stroke-miterlimit:10;}.cls-7,.cls-8{stroke-width:2px;}.cls-8{stroke-linecap:round;}.cls-10{fill:#ff422a;}</style></defs><path class="cls-1" d="M289.18,308c6,35-4,75-12,93s-34,64-34,64,12,7,11,14-6,9-14,11-36,10-90,11-92-8-99-11-11-1-13-7,12-16,12-16-29-43-37-68-18-71-8-106,39-101,44-126,0-58,8-90,35-76,90-76c44,0,79,33,87,74s6,77,12,99S283.18,273,289.18,308Z"/><path class="cls-2" d="M117.1,95c-3.75,1.22-6.42,4.31-6.42,7.93,0,4.69,4.48,8.5,10,8.5s10-3.81,10-8.5a8.15,8.15,0,0,0-4-6.79,11.06,11.06,0,0,0-6-1.71A11.33,11.33,0,0,0,117.1,95Zm57.16,0a11.33,11.33,0,0,0-3.58-.57,11.06,11.06,0,0,0-6,1.71,8.15,8.15,0,0,0-4,6.79c0,4.69,4.48,8.5,10,8.5s10-3.81,10-8.5C180.68,99.34,178,96.25,174.26,95Zm38.9-27.43a69.52,69.52,0,0,1,6,28.36c0,39.21-32.46,71-72.5,71s-72.5-31.79-72.5-71A69.65,69.65,0,0,1,89.36,52.51a70.38,70.38,0,0,0-8.6,13.9,53.69,53.69,0,0,0,28.42,8A52.72,52.72,0,0,0,156.11,46.6c6.27,15.81,20.51,26.86,37.07,26.86A37.19,37.19,0,0,0,213.16,67.6ZM157.18,85l38,2s-6-5-11-6S169.18,82,157.18,85Zm23.5,58.5a10.51,10.51,0,1,0-11-10.5A10.75,10.75,0,0,0,180.68,143.46ZM96.18,87l38-1s-22-7-28-5S105.18,82,96.18,87Zm16.5,56.5a10.51,10.51,0,1,0-11-10.5A10.75,10.75,0,0,0,112.68,143.46Z"/><path class="cls-3" d="M213.16,67.6a37.19,37.19,0,0,1-20,5.86c-16.56,0-30.8-11-37.07-26.86a48.69,48.69,0,0,0,5.5-20.12c-1.21-.25-2.42-.47-3.65-.66A72.34,72.34,0,0,1,213.16,67.6Z"/><path class="cls-2" d="M195.18,87l-38-2c12-3,22-5,27-4S195.18,87,195.18,87Z"/><ellipse class="cls-4" cx="180.68" cy="132.96" rx="11" ry="10.5"/><path class="cls-5" d="M174.26,95c3.75,1.22,6.42,4.31,6.42,7.93,0,4.69-4.48,8.5-10,8.5s-10-3.81-10-8.5a8.15,8.15,0,0,1,4-6.79A21.23,21.23,0,0,1,172.18,95C172.94,95,173.63,95,174.26,95Zm1.42,7.43a6,6,0,1,0-6,6A6,6,0,0,0,175.68,102.46Z"/><circle cx="169.68" cy="102.46" r="6"/><path class="cls-6" d="M156.11,46.6a52.72,52.72,0,0,1-46.93,27.86,53.69,53.69,0,0,1-28.42-8,70.38,70.38,0,0,1,8.6-13.9l.79-1c.79-1,1.62-1.92,2.46-2.85.57-.62,1.14-1.23,1.73-1.83.29-.3.59-.59.89-.89l.9-.88.92-.86c.62-.56,1.24-1.12,1.88-1.67l1-.81,1-.8c.65-.52,1.32-1,2-1.54l1-.75,1-.73,1-.71,1.06-.69c.4-.26.8-.52,1.21-.76.68-.42,1.36-.82,2-1.21l.82-.47.58-.32.84-.44c.76-.4,1.54-.79,2.32-1.17l1.12-.52c1-.44,1.92-.86,2.9-1.26.4-.16.81-.33,1.22-.48l.9-.34.94-.34c.81-.29,1.63-.57,2.46-.83l1.24-.38,1.25-.36,1.67-.44c.57-.15,1.13-.28,1.7-.41l1.74-.37.84-.16c.38-.08.75-.15,1.13-.21l1.54-.25c.76-.12,1.52-.22,2.28-.31.46-.06.92-.11,1.39-.15a74.43,74.43,0,0,1,7.5-.38c.76,0,1.51,0,2.26,0l1.56.07c1.26.06,2.51.16,3.76.29q.93.09,1.86.21l1.84.26c1.23.19,2.44.41,3.65.66A48.69,48.69,0,0,1,156.11,46.6Z"/><path class="cls-2" d="M134.18,86l-38,1c9-5,4-4,10-6S134.18,86,134.18,86Z"/><path class="cls-5" d="M126.69,96.17a8.15,8.15,0,0,1,4,6.79c0,4.69-4.48,8.5-10,8.5s-10-3.81-10-8.5c0-3.62,2.67-6.71,6.42-7.93.63,0,1.32-.07,2.08-.07A21.23,21.23,0,0,1,126.69,96.17Zm1,6.29a6,6,0,1,0-6,6A6,6,0,0,0,127.68,102.46Z"/><circle cx="121.68" cy="102.46" r="6"/><ellipse class="cls-4" cx="112.68" cy="132.96" rx="11" ry="10.5"/><path class="cls-7" d="M154.26,25.35q.94.09,1.86.21c.62.08,1.23.16,1.84.26a72.34,72.34,0,0,1,55.2,41.78,69.52,69.52,0,0,1,6,28.36c0,39.21-32.46,71-72.5,71s-72.5-31.79-72.5-71A69.65,69.65,0,0,1,89.36,52.51c.25-.33.51-.66.79-1q1.17-1.45,2.46-2.85c.56-.63,1.14-1.24,1.73-1.83"/><path class="cls-7" d="M148.94,25l1.56.07"/><path class="cls-7" d="M137.79,25.49c.46-.06.92-.11,1.39-.15"/><path class="cls-7" d="M134,26.05l1.54-.25"/><path class="cls-7" d="M132,26.42l.84-.16"/><path class="cls-7" d="M128.56,27.2c.57-.15,1.13-.28,1.7-.41"/><path class="cls-7" d="M124.4,28.38l1.24-.38c.42-.13.83-.25,1.25-.36"/><path class="cls-7" d="M121,29.55c.31-.12.63-.24.94-.34"/><path class="cls-7" d="M118.88,30.37c.4-.16.81-.33,1.22-.48"/><path class="cls-7" d="M114.86,32.15l1.12-.52"/><path class="cls-7" d="M111.7,33.76l.84-.44"/><path class="cls-7" d="M108.25,35.76c.67-.42,1.35-.83,2-1.21.27-.17.54-.32.82-.47"/><path class="cls-7" d="M106,37.21c.35-.24.7-.47,1.06-.69"/><path class="cls-7" d="M98.93,42.55c.32-.28.64-.55,1-.81s.65-.55,1-.8c.65-.54,1.32-1,2-1.54.34-.27.68-.51,1-.75s.68-.5,1-.73"/><path class="cls-7" d="M95.23,46c.29-.31.59-.6.9-.88s.61-.58.92-.86"/><path class="cls-8" d="M96.18,87c9-5,4-4,10-6s28,5,28,5"/><path class="cls-8" d="M157.18,85c12-3,22-5,27-4s11,6,11,6"/><path class="cls-7" d="M102.18,105c-3,1,1,1,5-3,3.66-3.66,3.13-6.48,9.92-6.93.63,0,1.32-.07,2.08-.07a21.23,21.23,0,0,1,7.51,1.21c4.5,1.67,7.46,5,9.49,9.79"/><path class="cls-9" d="M126.69,96.17a8.15,8.15,0,0,1,4,6.79c0,4.69-4.48,8.5-10,8.5s-10-3.81-10-8.5c0-3.62,2.67-6.71,6.42-7.93a11.33,11.33,0,0,1,3.58-.57A11.06,11.06,0,0,1,126.69,96.17Z"/><circle class="cls-9" cx="121.68" cy="102.46" r="6"/><path class="cls-8" d="M105.18,110c8.08,2,16.15,5,30,2"/><path class="cls-7" d="M189.18,105c3,1-1,1-5-3-3.66-3.66-3.13-6.48-9.92-6.93-.63,0-1.32-.07-2.08-.07a21.23,21.23,0,0,0-7.51,1.21c-4.5,1.67-7.46,5-9.49,9.79"/><path class="cls-9" d="M164.67,96.17a8.15,8.15,0,0,0-4,6.79c0,4.69,4.48,8.5,10,8.5s10-3.81,10-8.5c0-3.62-2.67-6.71-6.42-7.93a11.33,11.33,0,0,0-3.58-.57A11.06,11.06,0,0,0,164.67,96.17Z"/><circle class="cls-9" cx="169.68" cy="102.46" r="6"/><path class="cls-8" d="M186.18,110c-8.08,2-16.15,5-30,2"/><path class="cls-7" d="M148.94,25c-.75,0-1.5,0-2.26,0a74.43,74.43,0,0,0-7.5.38c-.47,0-.93.09-1.39.15-.76.09-1.52.19-2.28.31l-1.54.25c-.38.06-.75.13-1.13.21l-.84.16-1.74.37-1.7.41-1.67.44-1.25.36-1.24.38c-.83.26-1.65.54-2.46.83l-.94.34-.9.34-1.22.48c-1,.4-1.94.82-2.9,1.26l-1.12.52c-.78.38-1.56.77-2.32,1.17l-.84.44-.58.32-.82.47c-.69.39-1.37.79-2,1.21-.41.24-.81.5-1.21.76l-1.06.69-1,.71-1,.73-1,.75c-.68.5-1.35,1-2,1.54l-1,.8-1,.81c-.64.55-1.26,1.11-1.88,1.67l-.92.86-.9.88c-.3.3-.6.59-.89.89-.59.6-1.16,1.21-1.73,1.83-.84.93-1.67,1.88-2.46,2.85l-.79,1a70.38,70.38,0,0,0-8.6,13.9,53.69,53.69,0,0,0,28.42,8A52.72,52.72,0,0,0,156.11,46.6a48.69,48.69,0,0,0,5.5-20.12c-1.21-.25-2.42-.47-3.65-.66l-1.84-.26q-.93-.12-1.86-.21c-1.25-.13-2.5-.23-3.76-.29Z"/><path class="cls-9" d="M213.75,67.23c-.19.13-.39.25-.59.37a37.19,37.19,0,0,1-20,5.86c-16.56,0-30.8-11-37.07-26.86l0-.07"/><path class="cls-10" d="M154.77,139.82a2.4,2.4,0,0,1-.41,3.15l-7,6.11a1.63,1.63,0,0,1-2.23-.07l-6.61-5.68a2.88,2.88,0,0,1-.44-3.9l2.14-2.88a2.11,2.11,0,0,1,3.15-.75l2.84,2.13,2.95-2.21a2.26,2.26,0,0,1,3.24.56Z"/></svg>